<svg xmlns="http://www.w3.org/2000/svg" viewBox="0 0 1024 1024">
  <defs>
    <filter id="soft" x="-20%" y="-20%" width="140%" height="140%">
      <feGaussianBlur stdDeviation="10" result="blur" />
      <feOffset dy="12" in="blur" result="offset" />
      <feFlood flood-color="#5D4650" flood-opacity="0.12" />
      <feComposite in2="offset" operator="in" />
      <feMerge>
        <feMergeNode />
        <feMergeNode in="SourceGraphic" />
      </feMerge>
    </filter>
  </defs>
  <g stroke="#FFFFFF" stroke-width="24" stroke-linecap="round" stroke-linejoin="round" filter="url(#soft)">
    
      <path d="M130 640 C25 480 65 330 190 300 C165 370 175 440 240 500 L220 690 Z" fill="#FFF8F0"/>
      <path d="M894 640 C999 480 959 330 834 300 C859 370 849 440 784 500 L804 690 Z" fill="#FFF8F0"/>
      <path d="M155 455 C135 390 170 330 235 315 C205 365 200 415 222 465 Z" fill="#E8D5F2"/>
      <path d="M869 455 C889 390 854 330 789 315 C819 365 824 415 802 465 Z" fill="#E8D5F2"/>
  </g>
</svg>