<svg xmlns="http://www.w3.org/2000/svg" viewBox="0 0 1440 4237">
  <rect x="46" y="46" width="1348" height="4145" rx="58" fill="none" stroke="#ffffff" stroke-width="30"/>
  <rect x="71" y="71" width="1298" height="4095" rx="38" fill="none" stroke="#d84478" stroke-width="4" opacity="0.48"/>
  <circle cx="78" cy="46" r="16" fill="none" stroke="#d84478" stroke-width="7"/><circle cx="110" cy="46" r="16" fill="none" stroke="#d84478" stroke-width="7"/><circle cx="142" cy="46" r="16" fill="none" stroke="#d84478" stroke-width="7"/><circle cx="174" cy="46" r="16" fill="none" stroke="#d84478" stroke-width="7"/><circle cx="206" cy="46" r="16" fill="none" stroke="#d84478" stroke-width="7"/><circle cx="238" cy="46" r="16" fill="none" stroke="#d84478" stroke-width="7"/><circle cx="270" cy="46" r="16" fill="none" stroke="#d84478" stroke-width="7"/><circle cx="302" cy="46" r="16" fill="none" stroke="#d84478" stroke-width="7"/><circle cx="334" cy="46" r="16" fill="none" stroke="#d84478" stroke-width="7"/><circle cx="366" cy="46" r="16" fill="none" stroke="#d84478" stroke-width="7"/><circle cx="398" cy="46" r="16" fill="none" stroke="#d84478" stroke-width="7"/><circle cx="430" cy="46" r="16" fill="none" stroke="#d84478" stroke-width="7"/><circle cx="462" cy="46" r="16" fill="none" stroke="#d84478" stroke-width="7"/><circle cx="494" cy="46" r="16" fill="none" stroke="#d84478" stroke-width="7"/><circle cx="526" cy="46" r="16" fill="none" stroke="#d84478" stroke-width="7"/><circle cx="558" cy="46" r="16" fill="none" stroke="#d84478" stroke-width="7"/><circle cx="590" cy="46" r="16" fill="none" stroke="#d84478" stroke-width="7"/><circle cx="622" cy="46" r="16" fill="none" stroke="#d84478" stroke-width="7"/><circle cx="654" cy="46" r="16" fill="none" stroke="#d84478" stroke-width="7"/><circle cx="686" cy="46" r="16" fill="none" stroke="#d84478" stroke-width="7"/><circle cx="718" cy="46" r="16" fill="none" stroke="#d84478" stroke-width="7"/><circle cx="750" cy="46" r="16" fill="none" stroke="#d84478" stroke-width="7"/><circle cx="782" cy="46" r="16" fill="none" stroke="#d84478" stroke-width="7"/><circle cx="814" cy="46" r="16" fill="none" stroke="#d84478" stroke-width="7"/><circle cx="846" cy="46" r="16" fill="none" stroke="#d84478" stroke-width="7"/><circle cx="878" cy="46" r="16" fill="none" stroke="#d84478" stroke-width="7"/><circle cx="910" cy="46" r="16" fill="none" stroke="#d84478" stroke-width="7"/><circle cx="942" cy="46" r="16" fill="none" stroke="#d84478" stroke-width="7"/><circle cx="974" cy="46" r="16" fill="none" stroke="#d84478" stroke-width="7"/><circle cx="1006" cy="46" r="16" fill="none" stroke="#d84478" stroke-width="7"/><circle cx="1038" cy="46" r="16" fill="none" stroke="#d84478" stroke-width="7"/><circle cx="1070" cy="46" r="16" fill="none" stroke="#d84478" stroke-width="7"/><circle cx="1102" cy="46" r="16" fill="none" stroke="#d84478" stroke-width="7"/><circle cx="1134" cy="46" r="16" fill="none" stroke="#d84478" stroke-width="7"/><circle cx="1166" cy="46" r="16" fill="none" stroke="#d84478" stroke-width="7"/><circle cx="1198" cy="46" r="16" fill="none" stroke="#d84478" stroke-width="7"/><circle cx="1230" cy="46" r="16" fill="none" stroke="#d84478" stroke-width="7"/><circle cx="1262" cy="46" r="16" fill="none" stroke="#d84478" stroke-width="7"/><circle cx="1294" cy="46" r="16" fill="none" stroke="#d84478" stroke-width="7"/><circle cx="1326" cy="46" r="16" fill="none" stroke="#d84478" stroke-width="7"/><circle cx="1358" cy="46" r="16" fill="none" stroke="#d84478" stroke-width="7"/>
  <g transform="rotate(0 108 108)"><g fill="#d84478" opacity="0.55"><path d="M 108 142.56 C 54 108, 54 73.44, 82.08 73.44 C 99.36 73.44, 110.16 91.8, 110.16 105.84 C 110.16 120.96, 103.68 131.76, 108 142.56 Z" /></g></g><g transform="rotate(90 1332 108)"><g fill="#d84478" opacity="0.55"><path d="M 1332 142.56 C 1278 108, 1278 73.44, 1306.08 73.44 C 1323.36 73.44, 1334.16 91.8, 1334.16 105.84 C 1334.16 120.96, 1327.68 131.76, 1332 142.56 Z" /></g></g><g transform="rotate(-90 108 4129)"><g fill="#d84478" opacity="0.55"><path d="M 108 4163.56 C 54 4129, 54 4094.44, 82.08 4094.44 C 99.36 4094.44, 110.16 4112.8, 110.16 4126.84 C 110.16 4141.96, 103.68 4152.76, 108 4163.56 Z" /></g></g><g transform="rotate(180 1332 4129)"><g fill="#d84478" opacity="0.55"><path d="M 1332 4163.56 C 1278 4129, 1278 4094.44, 1306.08 4094.44 C 1323.36 4094.44, 1334.16 4112.8, 1334.16 4126.84 C 1334.16 4141.96, 1327.68 4152.76, 1332 4163.56 Z" /></g></g>
  <circle cx="720" cy="46" r="8" fill="#d84478" opacity="0.55"/>
  <circle cx="720" cy="4191" r="8" fill="#d84478" opacity="0.55"/>
  <circle cx="46" cy="2118.5" r="8" fill="#d84478" opacity="0.55"/>
  <circle cx="1394" cy="2118.5" r="8" fill="#d84478" opacity="0.55"/>
</svg>