<svg xmlns="http://www.w3.org/2000/svg" viewBox="0 0 1440 1853">
  <rect x="46" y="46" width="1348" height="1761" rx="58" fill="none" stroke="#ffffff" stroke-width="30"/>
  <rect x="71" y="71" width="1298" height="1711" rx="38" fill="none" stroke="#df4e8b" stroke-width="4" opacity="0.48"/>
  <circle cx="78" cy="46" r="8.32" fill="#df4e8b" opacity=".6"/><circle cx="110" cy="46" r="8.32" fill="#df4e8b" opacity=".6"/><circle cx="142" cy="46" r="8.32" fill="#df4e8b" opacity=".6"/><circle cx="174" cy="46" r="8.32" fill="#df4e8b" opacity=".6"/><circle cx="206" cy="46" r="8.32" fill="#df4e8b" opacity=".6"/><circle cx="238" cy="46" r="8.32" fill="#df4e8b" opacity=".6"/><circle cx="270" cy="46" r="8.32" fill="#df4e8b" opacity=".6"/><circle cx="302" cy="46" r="8.32" fill="#df4e8b" opacity=".6"/><circle cx="334" cy="46" r="8.32" fill="#df4e8b" opacity=".6"/><circle cx="366" cy="46" r="8.32" fill="#df4e8b" opacity=".6"/><circle cx="398" cy="46" r="8.32" fill="#df4e8b" opacity=".6"/><circle cx="430" cy="46" r="8.32" fill="#df4e8b" opacity=".6"/><circle cx="462" cy="46" r="8.32" fill="#df4e8b" opacity=".6"/><circle cx="494" cy="46" r="8.32" fill="#df4e8b" opacity=".6"/><circle cx="526" cy="46" r="8.32" fill="#df4e8b" opacity=".6"/><circle cx="558" cy="46" r="8.32" fill="#df4e8b" opacity=".6"/><circle cx="590" cy="46" r="8.32" fill="#df4e8b" opacity=".6"/><circle cx="622" cy="46" r="8.32" fill="#df4e8b" opacity=".6"/><circle cx="654" cy="46" r="8.32" fill="#df4e8b" opacity=".6"/><circle cx="686" cy="46" r="8.32" fill="#df4e8b" opacity=".6"/><circle cx="718" cy="46" r="8.32" fill="#df4e8b" opacity=".6"/><circle cx="750" cy="46" r="8.32" fill="#df4e8b" opacity=".6"/><circle cx="782" cy="46" r="8.32" fill="#df4e8b" opacity=".6"/><circle cx="814" cy="46" r="8.32" fill="#df4e8b" opacity=".6"/><circle cx="846" cy="46" r="8.32" fill="#df4e8b" opacity=".6"/><circle cx="878" cy="46" r="8.32" fill="#df4e8b" opacity=".6"/><circle cx="910" cy="46" r="8.32" fill="#df4e8b" opacity=".6"/><circle cx="942" cy="46" r="8.32" fill="#df4e8b" opacity=".6"/><circle cx="974" cy="46" r="8.32" fill="#df4e8b" opacity=".6"/><circle cx="1006" cy="46" r="8.32" fill="#df4e8b" opacity=".6"/><circle cx="1038" cy="46" r="8.32" fill="#df4e8b" opacity=".6"/><circle cx="1070" cy="46" r="8.32" fill="#df4e8b" opacity=".6"/><circle cx="1102" cy="46" r="8.32" fill="#df4e8b" opacity=".6"/><circle cx="1134" cy="46" r="8.32" fill="#df4e8b" opacity=".6"/><circle cx="1166" cy="46" r="8.32" fill="#df4e8b" opacity=".6"/><circle cx="1198" cy="46" r="8.32" fill="#df4e8b" opacity=".6"/><circle cx="1230" cy="46" r="8.32" fill="#df4e8b" opacity=".6"/><circle cx="1262" cy="46" r="8.32" fill="#df4e8b" opacity=".6"/><circle cx="1294" cy="46" r="8.32" fill="#df4e8b" opacity=".6"/><circle cx="1326" cy="46" r="8.32" fill="#df4e8b" opacity=".6"/><circle cx="1358" cy="46" r="8.32" fill="#df4e8b" opacity=".6"/>
  <g transform="rotate(0 108 108)"><g fill="#df4e8b" opacity="0.55"><path d="M 54 81 L 108 108 L 162 81 L 129.6 162 L 86.4 162 Z" /><circle cx="108" cy="100.44" r="12.959999999999999" /></g></g><g transform="rotate(90 1332 108)"><g fill="#df4e8b" opacity="0.55"><path d="M 1278 81 L 1332 108 L 1386 81 L 1353.6 162 L 1310.4 162 Z" /><circle cx="1332" cy="100.44" r="12.959999999999999" /></g></g><g transform="rotate(-90 108 1745)"><g fill="#df4e8b" opacity="0.55"><path d="M 54 1718 L 108 1745 L 162 1718 L 129.6 1799 L 86.4 1799 Z" /><circle cx="108" cy="1737.44" r="12.959999999999999" /></g></g><g transform="rotate(180 1332 1745)"><g fill="#df4e8b" opacity="0.55"><path d="M 1278 1718 L 1332 1745 L 1386 1718 L 1353.6 1799 L 1310.4 1799 Z" /><circle cx="1332" cy="1737.44" r="12.959999999999999" /></g></g>
  <circle cx="720" cy="46" r="8" fill="#df4e8b" opacity="0.55"/>
  <circle cx="720" cy="1807" r="8" fill="#df4e8b" opacity="0.55"/>
  <circle cx="46" cy="926.5" r="8" fill="#df4e8b" opacity="0.55"/>
  <circle cx="1394" cy="926.5" r="8" fill="#df4e8b" opacity="0.55"/>
</svg>