<svg xmlns="http://www.w3.org/2000/svg" viewBox="0 0 1440 1853">
  <rect x="46" y="46" width="1348" height="1761" rx="58" fill="none" stroke="#ffffff" stroke-width="30"/>
  <rect x="71" y="71" width="1298" height="1711" rx="38" fill="none" stroke="#a06d4e" stroke-width="4" opacity="0.48"/>
  <rect x="78" y="40" width="12.16" height="12" rx="2" fill="#a06d4e" opacity=".58" transform="rotate(-10 84.08 46)"/><rect x="110" y="40" width="12.16" height="12" rx="2" fill="#a06d4e" opacity=".58" transform="rotate(-10 116.08 46)"/><rect x="142" y="40" width="12.16" height="12" rx="2" fill="#a06d4e" opacity=".58" transform="rotate(-10 148.08 46)"/><rect x="174" y="40" width="12.16" height="12" rx="2" fill="#a06d4e" opacity=".58" transform="rotate(-10 180.08 46)"/><rect x="206" y="40" width="12.16" height="12" rx="2" fill="#a06d4e" opacity=".58" transform="rotate(-10 212.08 46)"/><rect x="238" y="40" width="12.16" height="12" rx="2" fill="#a06d4e" opacity=".58" transform="rotate(-10 244.08 46)"/><rect x="270" y="40" width="12.16" height="12" rx="2" fill="#a06d4e" opacity=".58" transform="rotate(-10 276.08 46)"/><rect x="302" y="40" width="12.16" height="12" rx="2" fill="#a06d4e" opacity=".58" transform="rotate(-10 308.08 46)"/><rect x="334" y="40" width="12.16" height="12" rx="2" fill="#a06d4e" opacity=".58" transform="rotate(-10 340.08 46)"/><rect x="366" y="40" width="12.16" height="12" rx="2" fill="#a06d4e" opacity=".58" transform="rotate(-10 372.08 46)"/><rect x="398" y="40" width="12.16" height="12" rx="2" fill="#a06d4e" opacity=".58" transform="rotate(-10 404.08 46)"/><rect x="430" y="40" width="12.16" height="12" rx="2" fill="#a06d4e" opacity=".58" transform="rotate(-10 436.08 46)"/><rect x="462" y="40" width="12.16" height="12" rx="2" fill="#a06d4e" opacity=".58" transform="rotate(-10 468.08 46)"/><rect x="494" y="40" width="12.16" height="12" rx="2" fill="#a06d4e" opacity=".58" transform="rotate(-10 500.08 46)"/><rect x="526" y="40" width="12.16" height="12" rx="2" fill="#a06d4e" opacity=".58" transform="rotate(-10 532.08 46)"/><rect x="558" y="40" width="12.16" height="12" rx="2" fill="#a06d4e" opacity=".58" transform="rotate(-10 564.08 46)"/><rect x="590" y="40" width="12.16" height="12" rx="2" fill="#a06d4e" opacity=".58" transform="rotate(-10 596.08 46)"/><rect x="622" y="40" width="12.16" height="12" rx="2" fill="#a06d4e" opacity=".58" transform="rotate(-10 628.08 46)"/><rect x="654" y="40" width="12.16" height="12" rx="2" fill="#a06d4e" opacity=".58" transform="rotate(-10 660.08 46)"/><rect x="686" y="40" width="12.16" height="12" rx="2" fill="#a06d4e" opacity=".58" transform="rotate(-10 692.08 46)"/><rect x="718" y="40" width="12.16" height="12" rx="2" fill="#a06d4e" opacity=".58" transform="rotate(-10 724.08 46)"/><rect x="750" y="40" width="12.16" height="12" rx="2" fill="#a06d4e" opacity=".58" transform="rotate(-10 756.08 46)"/><rect x="782" y="40" width="12.16" height="12" rx="2" fill="#a06d4e" opacity=".58" transform="rotate(-10 788.08 46)"/><rect x="814" y="40" width="12.16" height="12" rx="2" fill="#a06d4e" opacity=".58" transform="rotate(-10 820.08 46)"/><rect x="846" y="40" width="12.16" height="12" rx="2" fill="#a06d4e" opacity=".58" transform="rotate(-10 852.08 46)"/><rect x="878" y="40" width="12.16" height="12" rx="2" fill="#a06d4e" opacity=".58" transform="rotate(-10 884.08 46)"/><rect x="910" y="40" width="12.16" height="12" rx="2" fill="#a06d4e" opacity=".58" transform="rotate(-10 916.08 46)"/><rect x="942" y="40" width="12.16" height="12" rx="2" fill="#a06d4e" opacity=".58" transform="rotate(-10 948.08 46)"/><rect x="974" y="40" width="12.16" height="12" rx="2" fill="#a06d4e" opacity=".58" transform="rotate(-10 980.08 46)"/><rect x="1006" y="40" width="12.16" height="12" rx="2" fill="#a06d4e" opacity=".58" transform="rotate(-10 1012.08 46)"/><rect x="1038" y="40" width="12.16" height="12" rx="2" fill="#a06d4e" opacity=".58" transform="rotate(-10 1044.08 46)"/><rect x="1070" y="40" width="12.16" height="12" rx="2" fill="#a06d4e" opacity=".58" transform="rotate(-10 1076.08 46)"/><rect x="1102" y="40" width="12.16" height="12" rx="2" fill="#a06d4e" opacity=".58" transform="rotate(-10 1108.08 46)"/><rect x="1134" y="40" width="12.16" height="12" rx="2" fill="#a06d4e" opacity=".58" transform="rotate(-10 1140.08 46)"/><rect x="1166" y="40" width="12.16" height="12" rx="2" fill="#a06d4e" opacity=".58" transform="rotate(-10 1172.08 46)"/><rect x="1198" y="40" width="12.16" height="12" rx="2" fill="#a06d4e" opacity=".58" transform="rotate(-10 1204.08 46)"/><rect x="1230" y="40" width="12.16" height="12" rx="2" fill="#a06d4e" opacity=".58" transform="rotate(-10 1236.08 46)"/><rect x="1262" y="40" width="12.16" height="12" rx="2" fill="#a06d4e" opacity=".58" transform="rotate(-10 1268.08 46)"/><rect x="1294" y="40" width="12.16" height="12" rx="2" fill="#a06d4e" opacity=".58" transform="rotate(-10 1300.08 46)"/><rect x="1326" y="40" width="12.16" height="12" rx="2" fill="#a06d4e" opacity=".58" transform="rotate(-10 1332.08 46)"/><rect x="1358" y="40" width="12.16" height="12" rx="2" fill="#a06d4e" opacity=".58" transform="rotate(-10 1364.08 46)"/>
  <g transform="rotate(0 108 108)"><g fill="#a06d4e" opacity="0.55"><ellipse cx="108" cy="120.96" rx="41.04" ry="30.240000000000002" /><circle cx="73.44" cy="79.92" r="10.8" /><circle cx="95.03999999999999" cy="68.04" r="12.959999999999999" /><circle cx="120.96" cy="68.04" r="12.959999999999999" /><circle cx="142.56" cy="79.92" r="10.8" /></g></g><g transform="rotate(90 1332 108)"><g fill="#a06d4e" opacity="0.55"><ellipse cx="1332" cy="120.96" rx="41.04" ry="30.240000000000002" /><circle cx="1297.44" cy="79.92" r="10.8" /><circle cx="1319.04" cy="68.04" r="12.959999999999999" /><circle cx="1344.96" cy="68.04" r="12.959999999999999" /><circle cx="1366.56" cy="79.92" r="10.8" /></g></g><g transform="rotate(-90 108 1745)"><g fill="#a06d4e" opacity="0.55"><ellipse cx="108" cy="1757.96" rx="41.04" ry="30.240000000000002" /><circle cx="73.44" cy="1716.92" r="10.8" /><circle cx="95.03999999999999" cy="1705.04" r="12.959999999999999" /><circle cx="120.96" cy="1705.04" r="12.959999999999999" /><circle cx="142.56" cy="1716.92" r="10.8" /></g></g><g transform="rotate(180 1332 1745)"><g fill="#a06d4e" opacity="0.55"><ellipse cx="1332" cy="1757.96" rx="41.04" ry="30.240000000000002" /><circle cx="1297.44" cy="1716.92" r="10.8" /><circle cx="1319.04" cy="1705.04" r="12.959999999999999" /><circle cx="1344.96" cy="1705.04" r="12.959999999999999" /><circle cx="1366.56" cy="1716.92" r="10.8" /></g></g>
  <circle cx="720" cy="46" r="8" fill="#a06d4e" opacity="0.55"/>
  <circle cx="720" cy="1807" r="8" fill="#a06d4e" opacity="0.55"/>
  <circle cx="46" cy="926.5" r="8" fill="#a06d4e" opacity="0.55"/>
  <circle cx="1394" cy="926.5" r="8" fill="#a06d4e" opacity="0.55"/>
</svg>