<svg xmlns="http://www.w3.org/2000/svg" viewBox="0 0 1440 508">
  <rect x="18" y="18" width="1404" height="472" rx="28" fill="none" stroke="#fffdf9" stroke-width="14" opacity="0.96"/>
  <rect x="31" y="31" width="1378" height="446" rx="21" fill="none" stroke="#bf415c" stroke-width="3" opacity="0.55"/>
  <rect x="70" y="70" width="273.29" height="367.72" rx="18" fill="none" stroke="#ffffff" stroke-width="9" opacity="0.88"/><rect x="412.24" y="70" width="273.29" height="367.72" rx="18" fill="none" stroke="#ffffff" stroke-width="6" opacity="0.88"/><rect x="754.47" y="70" width="273.29" height="367.72" rx="18" fill="none" stroke="#ffffff" stroke-width="9" opacity="0.88"/><rect x="1096.71" y="70" width="273.29" height="367.72" rx="18" fill="none" stroke="#ffffff" stroke-width="6" opacity="0.88"/>
  <rect x="18" y="18" width="59.4" height="21.6" rx="6" fill="#bf415c" opacity="0.7" transform="rotate(-6 44.1 28.8)"/><rect x="1363.5" y="469.3" width="59.4" height="21.6" rx="6" fill="#bf415c" opacity="0.7" transform="rotate(6 1393.2 481)"/><g fill="#bf415c" opacity="0.28"><ellipse cx="130.5" cy="449.3" rx="5.81" ry="9.79" transform="rotate(0 130.5 457.26)" /><ellipse cx="130.5" cy="449.3" rx="5.81" ry="9.79" transform="rotate(72 130.5 457.26)" /><ellipse cx="130.5" cy="449.3" rx="5.81" ry="9.79" transform="rotate(144 130.5 457.26)" /><ellipse cx="130.5" cy="449.3" rx="5.81" ry="9.79" transform="rotate(216 130.5 457.26)" /><ellipse cx="130.5" cy="449.3" rx="5.81" ry="9.79" transform="rotate(288 130.5 457.26)" /><circle cx="130.5" cy="457.26" r="3.98" fill="#ffffff" opacity="0.9" /></g><g fill="#bf415c" opacity="0.28"><ellipse cx="1167.3" cy="42.9" rx="5.81" ry="9.79" transform="rotate(0 1167.3 50.86)" /><ellipse cx="1167.3" cy="42.9" rx="5.81" ry="9.79" transform="rotate(72 1167.3 50.86)" /><ellipse cx="1167.3" cy="42.9" rx="5.81" ry="9.79" transform="rotate(144 1167.3 50.86)" /><ellipse cx="1167.3" cy="42.9" rx="5.81" ry="9.79" transform="rotate(216 1167.3 50.86)" /><ellipse cx="1167.3" cy="42.9" rx="5.81" ry="9.79" transform="rotate(288 1167.3 50.86)" /><circle cx="1167.3" cy="50.86" r="3.98" fill="#ffffff" opacity="0.9" /></g>
</svg>