<svg xmlns="http://www.w3.org/2000/svg" viewBox="0 0 1440 4237">
  <rect x="70" y="70" width="1300" height="972.5" rx="20" fill="none" stroke="#f8f5ef" stroke-width="10" opacity="0.94"/><rect x="70" y="1111.45" width="1300" height="972.5" rx="20" fill="none" stroke="#f8f5ef" stroke-width="7" opacity="0.94"/><rect x="70" y="2152.9" width="1300" height="972.5" rx="20" fill="none" stroke="#f8f5ef" stroke-width="10" opacity="0.94"/><rect x="70" y="3194.35" width="1300" height="972.5" rx="20" fill="none" stroke="#f8f5ef" stroke-width="7" opacity="0.94"/>
  <g>
      <rect x="20" y="20" width="48" height="4197" rx="16" fill="#252429" opacity="0.9"/>
      <rect x="1372" y="20" width="48" height="4197" rx="16" fill="#252429" opacity="0.9"/>
      <rect x="36" y="82" width="22" height="13" rx="4" fill="#f8f5ef" opacity="0.56"/><rect x="1382" y="82" width="22" height="13" rx="4" fill="#f8f5ef" opacity="0.56"/><rect x="36" y="184" width="22" height="13" rx="4" fill="#f8f5ef" opacity="0.56"/><rect x="1382" y="184" width="22" height="13" rx="4" fill="#f8f5ef" opacity="0.56"/><rect x="36" y="286" width="22" height="13" rx="4" fill="#f8f5ef" opacity="0.56"/><rect x="1382" y="286" width="22" height="13" rx="4" fill="#f8f5ef" opacity="0.56"/><rect x="36" y="388" width="22" height="13" rx="4" fill="#f8f5ef" opacity="0.56"/><rect x="1382" y="388" width="22" height="13" rx="4" fill="#f8f5ef" opacity="0.56"/><rect x="36" y="490" width="22" height="13" rx="4" fill="#f8f5ef" opacity="0.56"/><rect x="1382" y="490" width="22" height="13" rx="4" fill="#f8f5ef" opacity="0.56"/><rect x="36" y="592" width="22" height="13" rx="4" fill="#f8f5ef" opacity="0.56"/><rect x="1382" y="592" width="22" height="13" rx="4" fill="#f8f5ef" opacity="0.56"/><rect x="36" y="694" width="22" height="13" rx="4" fill="#f8f5ef" opacity="0.56"/><rect x="1382" y="694" width="22" height="13" rx="4" fill="#f8f5ef" opacity="0.56"/><rect x="36" y="796" width="22" height="13" rx="4" fill="#f8f5ef" opacity="0.56"/><rect x="1382" y="796" width="22" height="13" rx="4" fill="#f8f5ef" opacity="0.56"/><rect x="36" y="898" width="22" height="13" rx="4" fill="#f8f5ef" opacity="0.56"/><rect x="1382" y="898" width="22" height="13" rx="4" fill="#f8f5ef" opacity="0.56"/><rect x="36" y="1000" width="22" height="13" rx="4" fill="#f8f5ef" opacity="0.56"/><rect x="1382" y="1000" width="22" height="13" rx="4" fill="#f8f5ef" opacity="0.56"/><rect x="36" y="1102" width="22" height="13" rx="4" fill="#f8f5ef" opacity="0.56"/><rect x="1382" y="1102" width="22" height="13" rx="4" fill="#f8f5ef" opacity="0.56"/><rect x="36" y="1204" width="22" height="13" rx="4" fill="#f8f5ef" opacity="0.56"/><rect x="1382" y="1204" width="22" height="13" rx="4" fill="#f8f5ef" opacity="0.56"/><rect x="36" y="1306" width="22" height="13" rx="4" fill="#f8f5ef" opacity="0.56"/><rect x="1382" y="1306" width="22" height="13" rx="4" fill="#f8f5ef" opacity="0.56"/><rect x="36" y="1408" width="22" height="13" rx="4" fill="#f8f5ef" opacity="0.56"/><rect x="1382" y="1408" width="22" height="13" rx="4" fill="#f8f5ef" opacity="0.56"/><rect x="36" y="1510" width="22" height="13" rx="4" fill="#f8f5ef" opacity="0.56"/><rect x="1382" y="1510" width="22" height="13" rx="4" fill="#f8f5ef" opacity="0.56"/><rect x="36" y="1612" width="22" height="13" rx="4" fill="#f8f5ef" opacity="0.56"/><rect x="1382" y="1612" width="22" height="13" rx="4" fill="#f8f5ef" opacity="0.56"/><rect x="36" y="1714" width="22" height="13" rx="4" fill="#f8f5ef" opacity="0.56"/><rect x="1382" y="1714" width="22" height="13" rx="4" fill="#f8f5ef" opacity="0.56"/><rect x="36" y="1816" width="22" height="13" rx="4" fill="#f8f5ef" opacity="0.56"/><rect x="1382" y="1816" width="22" height="13" rx="4" fill="#f8f5ef" opacity="0.56"/><rect x="36" y="1918" width="22" height="13" rx="4" fill="#f8f5ef" opacity="0.56"/><rect x="1382" y="1918" width="22" height="13" rx="4" fill="#f8f5ef" opacity="0.56"/><rect x="36" y="2020" width="22" height="13" rx="4" fill="#f8f5ef" opacity="0.56"/><rect x="1382" y="2020" width="22" height="13" rx="4" fill="#f8f5ef" opacity="0.56"/><rect x="36" y="2122" width="22" height="13" rx="4" fill="#f8f5ef" opacity="0.56"/><rect x="1382" y="2122" width="22" height="13" rx="4" fill="#f8f5ef" opacity="0.56"/><rect x="36" y="2224" width="22" height="13" rx="4" fill="#f8f5ef" opacity="0.56"/><rect x="1382" y="2224" width="22" height="13" rx="4" fill="#f8f5ef" opacity="0.56"/><rect x="36" y="2326" width="22" height="13" rx="4" fill="#f8f5ef" opacity="0.56"/><rect x="1382" y="2326" width="22" height="13" rx="4" fill="#f8f5ef" opacity="0.56"/><rect x="36" y="2428" width="22" height="13" rx="4" fill="#f8f5ef" opacity="0.56"/><rect x="1382" y="2428" width="22" height="13" rx="4" fill="#f8f5ef" opacity="0.56"/><rect x="36" y="2530" width="22" height="13" rx="4" fill="#f8f5ef" opacity="0.56"/><rect x="1382" y="2530" width="22" height="13" rx="4" fill="#f8f5ef" opacity="0.56"/><rect x="36" y="2632" width="22" height="13" rx="4" fill="#f8f5ef" opacity="0.56"/><rect x="1382" y="2632" width="22" height="13" rx="4" fill="#f8f5ef" opacity="0.56"/><rect x="36" y="2734" width="22" height="13" rx="4" fill="#f8f5ef" opacity="0.56"/><rect x="1382" y="2734" width="22" height="13" rx="4" fill="#f8f5ef" opacity="0.56"/><rect x="36" y="2836" width="22" height="13" rx="4" fill="#f8f5ef" opacity="0.56"/><rect x="1382" y="2836" width="22" height="13" rx="4" fill="#f8f5ef" opacity="0.56"/><rect x="36" y="2938" width="22" height="13" rx="4" fill="#f8f5ef" opacity="0.56"/><rect x="1382" y="2938" width="22" height="13" rx="4" fill="#f8f5ef" opacity="0.56"/><rect x="36" y="3040" width="22" height="13" rx="4" fill="#f8f5ef" opacity="0.56"/><rect x="1382" y="3040" width="22" height="13" rx="4" fill="#f8f5ef" opacity="0.56"/><rect x="36" y="3142" width="22" height="13" rx="4" fill="#f8f5ef" opacity="0.56"/><rect x="1382" y="3142" width="22" height="13" rx="4" fill="#f8f5ef" opacity="0.56"/><rect x="36" y="3244" width="22" height="13" rx="4" fill="#f8f5ef" opacity="0.56"/><rect x="1382" y="3244" width="22" height="13" rx="4" fill="#f8f5ef" opacity="0.56"/><rect x="36" y="3346" width="22" height="13" rx="4" fill="#f8f5ef" opacity="0.56"/><rect x="1382" y="3346" width="22" height="13" rx="4" fill="#f8f5ef" opacity="0.56"/><rect x="36" y="3448" width="22" height="13" rx="4" fill="#f8f5ef" opacity="0.56"/><rect x="1382" y="3448" width="22" height="13" rx="4" fill="#f8f5ef" opacity="0.56"/><rect x="36" y="3550" width="22" height="13" rx="4" fill="#f8f5ef" opacity="0.56"/><rect x="1382" y="3550" width="22" height="13" rx="4" fill="#f8f5ef" opacity="0.56"/><rect x="36" y="3652" width="22" height="13" rx="4" fill="#f8f5ef" opacity="0.56"/><rect x="1382" y="3652" width="22" height="13" rx="4" fill="#f8f5ef" opacity="0.56"/><rect x="36" y="3754" width="22" height="13" rx="4" fill="#f8f5ef" opacity="0.56"/><rect x="1382" y="3754" width="22" height="13" rx="4" fill="#f8f5ef" opacity="0.56"/><rect x="36" y="3856" width="22" height="13" rx="4" fill="#f8f5ef" opacity="0.56"/><rect x="1382" y="3856" width="22" height="13" rx="4" fill="#f8f5ef" opacity="0.56"/><rect x="36" y="3958" width="22" height="13" rx="4" fill="#f8f5ef" opacity="0.56"/><rect x="1382" y="3958" width="22" height="13" rx="4" fill="#f8f5ef" opacity="0.56"/><rect x="36" y="4060" width="22" height="13" rx="4" fill="#f8f5ef" opacity="0.56"/><rect x="1382" y="4060" width="22" height="13" rx="4" fill="#f8f5ef" opacity="0.56"/>
      <rect x="56" y="54" width="8" height="14" fill="#b84943" opacity="0.78"/>
      <rect x="1376" y="54" width="8" height="14" fill="#b84943" opacity="0.78"/>
      <rect x="76" y="22" width="1288" height="6" rx="3" fill="#f8f5ef" opacity="0.42"/>
    </g>
  <text x="720" y="128" text-anchor="middle" font-family="Arial, sans-serif" font-size="18" font-weight="800" fill="#252429" opacity="0.68">PHOTO MEMORIES</text><circle cx="720" cy="150" r="4" fill="#b84943" opacity="0.82"/>
</svg>